<svg data-v-fde0c5aa="" xmlns="http://www.w3.org/2000/svg" viewBox="0 0 300 300" class="iconAbove"><!----><defs data-v-fde0c5aa=""><!----></defs><rect data-v-fde0c5aa="" fill="transparent" x="0" y="0" width="300px" height="300px" class="logo-background-square"></rect><defs data-v-fde0c5aa=""><!----></defs><g data-v-fde0c5aa="" id="62221c04-c179-4eac-ab05-a96aa61205c5" fill="#000000" transform="matrix(1.4898005594481165,0,0,1.4898005594481165,18.45060747500534,164.8176707868252)"><path d="M1.04 13.78L3.09 13.78L3.09 10.63L4.37 10.63C6.30 10.63 7.94 9.66 7.94 7.50C7.94 5.26 6.34 4.54 4.37 4.54L1.04 4.54ZM3.09 8.99L3.09 6.17L4.24 6.17C5.33 6.17 5.91 6.52 5.91 7.50C5.91 8.47 5.38 8.99 4.24 8.99ZM13.02 13.94C13.94 13.94 14.98 13.62 15.76 13.12L15.09 11.87C14.48 12.21 13.93 12.38 13.30 12.38C12.28 12.38 11.42 11.90 11.28 10.81L15.96 10.81C15.99 10.63 16.04 10.25 16.04 9.88C16.04 7.94 14.92 6.45 12.78 6.45C10.93 6.45 9.17 7.87 9.17 10.21C9.17 12.57 10.86 13.94 13.02 13.94ZM11.26 9.44C11.44 8.48 12.08 8.04 12.82 8.04C13.76 8.04 14.18 8.60 14.18 9.44ZM19.94 13.94C20.83 13.94 21.70 13.51 22.40 12.96L22.46 12.96L22.61 13.78L24.29 13.78L24.29 9.66C24.29 7.50 23.10 6.45 21.15 6.45C19.96 6.45 18.86 6.87 18.19 7.43L18.91 8.78C19.42 8.37 20.08 8.11 20.75 8.11C21.69 8.11 22.16 8.51 22.23 9.18C18.94 9.39 17.65 10.21 17.65 11.80C17.65 13.01 18.54 13.94 19.94 13.94ZM20.59 12.35C20.01 12.35 19.63 12.12 19.63 11.65C19.63 11.00 20.19 10.54 22.23 10.42L22.23 11.65C21.74 12.05 21.21 12.35 20.59 12.35ZM26.26 13.78L28.32 13.78L28.32 11.97L29.34 10.82L31.16 13.78L33.39 13.78L30.55 9.56L33.18 6.64L30.93 6.64L28.38 9.58L28.32 9.58L28.32 3.65L26.26 3.65ZM34.51 13.78L37.10 13.78C39.63 13.78 41.38 12.28 41.38 9.11C41.38 5.95 39.63 4.54 36.99 4.54L34.51 4.54ZM36.58 12.11L36.58 6.20L36.88 6.20C38.30 6.20 39.27 6.90 39.27 9.11C39.27 11.33 38.30 12.11 36.88 12.11ZM51.30 13.78L53.35 13.78L53.35 9.91L55.85 9.91L55.85 13.78L57.90 13.78L57.90 4.54L55.85 4.54L55.85 8.11L53.35 8.11L53.35 4.54L51.30 4.54ZM62.97 5.80C63.78 5.80 64.37 5.26 64.37 4.42C64.37 3.58 63.78 3.00 62.97 3.00C62.16 3.00 61.57 3.58 61.57 4.42C61.57 5.26 62.16 5.80 62.97 5.80ZM59.65 13.78L66.47 13.78L66.47 12.11L64.09 12.11L64.09 6.64L59.65 6.64L59.65 8.25L62.03 8.25L62.03 12.11L59.65 12.11ZM70.25 13.78L72.62 13.78L75.17 6.64L73.19 6.64L72.10 10.05C71.88 10.77 71.69 11.51 71.48 12.25L71.43 12.25C71.22 11.51 71.02 10.77 70.80 10.05L69.71 6.64L67.63 6.64ZM80.22 13.94C81.14 13.94 82.18 13.62 82.96 13.12L82.29 11.87C81.68 12.21 81.13 12.38 80.50 12.38C79.48 12.38 78.62 11.90 78.48 10.81L83.16 10.81C83.19 10.63 83.24 10.25 83.24 9.88C83.24 7.94 82.12 6.45 79.98 6.45C78.13 6.45 76.37 7.87 76.37 10.21C76.37 12.57 78.06 13.94 80.22 13.94ZM78.46 9.44C78.64 8.48 79.28 8.04 80.02 8.04C80.96 8.04 81.38 8.60 81.38 9.44ZM84.50 13.78L86.44 13.78L86.44 8.93C86.63 8.46 86.80 8.20 87.07 8.20C87.33 8.20 87.47 8.44 87.47 8.92L87.47 13.78L89.05 13.78L89.05 8.93C89.24 8.46 89.43 8.20 89.70 8.20C89.98 8.20 90.09 8.44 90.09 8.92L90.09 13.78L92.02 13.78L92.02 8.76C92.02 7.34 91.45 6.45 90.48 6.45C89.70 6.45 89.21 6.97 88.96 7.63C88.79 6.86 88.35 6.45 87.74 6.45C86.94 6.45 86.52 6.93 86.25 7.53L86.20 7.53L86.04 6.64L84.50 6.64ZM96.57 5.80C97.38 5.80 97.97 5.26 97.97 4.42C97.97 3.58 97.38 3.00 96.57 3.00C95.76 3.00 95.17 3.58 95.17 4.42C95.17 5.26 95.76 5.80 96.57 5.80ZM93.25 13.78L100.07 13.78L100.07 12.11L97.69 12.11L97.69 6.64L93.25 6.64L93.25 8.25L95.63 8.25L95.63 12.11L93.25 12.11ZM101.81 13.78L103.87 13.78L103.87 9.00C104.36 8.48 104.72 8.20 105.28 8.20C106.04 8.20 106.30 8.65 106.30 9.63L106.30 13.78L108.36 13.78L108.36 9.37C108.36 7.56 107.66 6.45 106.09 6.45C105.06 6.45 104.30 6.99 103.70 7.60L103.64 7.60L103.49 6.64L101.81 6.64ZM112.78 13.94C113.48 13.94 114.20 13.55 114.72 13.03L114.76 13.03L114.91 13.78L116.59 13.78L116.59 3.65L114.53 3.65L114.53 6.12L114.60 7.24C114.11 6.76 113.62 6.45 112.83 6.45C111.31 6.45 109.86 7.87 109.86 10.21C109.86 12.54 111.02 13.94 112.78 13.94ZM113.32 12.26C112.46 12.26 111.97 11.61 111.97 10.18C111.97 8.81 112.62 8.13 113.37 8.13C113.78 8.13 114.16 8.27 114.53 8.64L114.53 11.58C114.17 12.07 113.78 12.26 113.32 12.26ZM127.04 13.78L129.09 13.78L129.09 10.63L130.37 10.63C132.30 10.63 133.94 9.66 133.94 7.50C133.94 5.26 132.34 4.54 130.37 4.54L127.04 4.54ZM129.09 8.99L129.09 6.17L130.24 6.17C131.33 6.17 131.91 6.52 131.91 7.50C131.91 8.47 131.38 8.99 130.24 8.99ZM139.93 13.94C140.80 13.94 141.29 13.79 142.02 13.55L141.55 12.04C141.12 12.22 140.78 12.28 140.46 12.28C139.89 12.28 139.34 11.98 139.34 11.10L139.34 3.65L135.27 3.65L135.27 5.28L137.28 5.28L137.28 11.00C137.28 12.81 138.18 13.94 139.93 13.94ZM145.92 13.94C146.92 13.94 147.64 13.47 148.26 12.74L148.32 12.74L148.47 13.78L150.15 13.78L150.15 6.64L148.09 6.64L148.09 11.34C147.62 12.00 147.25 12.19 146.73 12.19C145.96 12.19 145.73 11.76 145.73 10.78L145.73 6.64L143.67 6.64L143.67 11.05C143.67 12.85 144.34 13.94 145.92 13.94ZM154.98 16.81C157.35 16.81 158.59 15.69 158.59 13.78L158.59 6.64L156.98 6.64L156.81 7.38L156.76 7.38C156.23 6.76 155.60 6.45 154.87 6.45C153.27 6.45 151.86 7.88 151.86 10.08C151.86 12.15 153.03 13.59 154.78 13.59C155.44 13.59 156.18 13.30 156.65 12.82L156.60 13.99C156.59 14.55 156.00 15.20 154.98 15.20C154.41 15.20 153.64 15.05 152.98 14.53L152.29 15.93C153.10 16.60 154.21 16.81 154.98 16.81ZM155.32 11.94C154.50 11.94 153.94 11.26 153.94 10.05C153.94 8.83 154.64 8.13 155.34 8.13C155.78 8.13 156.16 8.27 156.53 8.64L156.53 11.23C156.16 11.75 155.76 11.94 155.32 11.94ZM163.77 5.80C164.58 5.80 165.17 5.26 165.17 4.42C165.17 3.58 164.58 3.00 163.77 3.00C162.96 3.00 162.37 3.58 162.37 4.42C162.37 5.26 162.96 5.80 163.77 5.80ZM160.45 13.78L167.27 13.78L167.27 12.11L164.89 12.11L164.89 6.64L160.45 6.64L160.45 8.25L162.83 8.25L162.83 12.11L160.45 12.11ZM169.01 13.78L171.07 13.78L171.07 9.00C171.56 8.48 171.92 8.20 172.48 8.20C173.24 8.20 173.50 8.65 173.50 9.63L173.50 13.78L175.56 13.78L175.56 9.37C175.56 7.56 174.86 6.45 173.29 6.45C172.26 6.45 171.50 6.99 170.90 7.60L170.84 7.60L170.69 6.64L169.01 6.64Z"></path></g><defs data-v-fde0c5aa=""><linearGradient data-v-fde0c5aa="" gradientTransform="rotate(25)" id="ab30e4e9-007a-4d3e-ba3f-c439d5d23d6c" x1="0%" y1="0%" x2="100%" y2="0%"><stop data-v-fde0c5aa="" offset="0%" stop-color="#395ECA" stop-opacity="1"></stop><stop data-v-fde0c5aa="" offset="100%" stop-color="#848BD8" stop-opacity="1"></stop></linearGradient></defs><g data-v-fde0c5aa="" id="c3bf5fee-b229-4a20-acb6-c4dbd453794a" stroke="none" fill="url(#ab30e4e9-007a-4d3e-ba3f-c439d5d23d6c)" transform="matrix(0.48295044071481424,0,0,0.48295044071481424,26.52495706927877,7.077375211573639)"><path d="M292.317 248.106l-28.419-28.421a37.508 37.508 0 0 0-15.794 0l-28.419 28.421a37.498 37.498 0 0 0 0 15.792l28.419 28.42a37.475 37.475 0 0 0 15.794 0l28.419-28.42a37.564 37.564 0 0 0 0-15.792zm-3.667 8.022a32.78 32.78 0 0 1-.788 7.042.891.891 0 0 1-.247.453l-23.992 23.992a.91.91 0 0 1-.453.251 32.836 32.836 0 0 1-7.17.792c-.164 0-.328-.004-.491-.008h-.037a32.938 32.938 0 0 1-6.64-.784.953.953 0 0 1-.455-.251l-23.99-23.992a.903.903 0 0 1-.25-.453 32.918 32.918 0 0 1-.79-7.127c0-.012-.003-.026-.003-.04 0-.016.003-.028.003-.042a32.8 32.8 0 0 1 .79-7.127.908.908 0 0 1 .25-.453l23.99-23.992a.95.95 0 0 1 .455-.25 32.817 32.817 0 0 1 6.997-.786c.013-.001.024-.005.041-.005h.005c.009 0 .018.003.028.003 2.442-.009 4.89.254 7.268.788a.94.94 0 0 1 .453.25l23.992 23.99a.918.918 0 0 1 .247.455c.53 2.362.795 4.792.791 7.224v.029c-.001.013-.004.027-.004.041zM219.703 267.758a.93.93 0 0 0-1.316 0l-4.715 4.714a.932.932 0 1 0 .659 1.588.928.928 0 0 0 .657-.275l4.715-4.713a.93.93 0 0 0 0-1.314zM224.612 272.666a.928.928 0 0 0-1.316 0l-4.715 4.714a.929.929 0 1 0 1.316 1.314l4.715-4.714a.93.93 0 0 0 0-1.314zM229.52 277.575a.926.926 0 0 0-1.316 0l-4.713 4.713a.927.927 0 0 0 0 1.314.924.924 0 0 0 1.316 0l4.713-4.713a.929.929 0 0 0 0-1.314zM234.428 282.483a.926.926 0 0 0-1.316 0l-4.715 4.714a.93.93 0 0 0 1.316 1.314l4.715-4.714a.929.929 0 0 0 0-1.314zM239.337 287.392a.929.929 0 0 0-1.316 0l-4.715 4.713a.928.928 0 1 0 .659 1.585c.237 0 .476-.09.657-.271l4.715-4.713a.93.93 0 0 0 0-1.314zM242.928 292.301l-4.713 4.713a.929.929 0 1 0 1.316 1.314l4.715-4.713a.93.93 0 0 0-1.318-1.314zM268.412 219.977a.932.932 0 0 0 .658-.273l4.714-4.713a.93.93 0 0 0-1.314-1.316l-4.717 4.713a.933.933 0 0 0 .659 1.589zM272.661 224.612a.937.937 0 0 0 1.318 0l4.713-4.713a.931.931 0 0 0 0-1.316.926.926 0 0 0-1.313 0l-4.718 4.713a.933.933 0 0 0 0 1.316zM277.571 229.521a.942.942 0 0 0 .659.274.933.933 0 0 0 .658-.274l4.714-4.713a.929.929 0 1 0-1.314-1.316l-4.717 4.713a.931.931 0 0 0 0 1.316zM282.479 234.429a.933.933 0 0 0 1.318 0l4.713-4.713a.933.933 0 0 0 0-1.316.927.927 0 0 0-1.314 0l-4.717 4.713a.931.931 0 0 0 0 1.316zM287.388 239.338a.933.933 0 0 0 1.317 0l4.713-4.713a.931.931 0 0 0 0-1.316.926.926 0 0 0-1.313 0l-4.717 4.714a.93.93 0 0 0 0 1.315zM292.296 244.247a.934.934 0 0 0 1.317 0l4.714-4.713a.933.933 0 0 0 0-1.316.927.927 0 0 0-1.314 0l-4.717 4.713a.933.933 0 0 0 0 1.316zM242.928 219.704c.183.181.42.271.659.271s.476-.09.659-.271a.933.933 0 0 0 0-1.316l-4.715-4.713a.93.93 0 1 0-1.316 1.316l4.713 4.713zM238.019 224.612c.183.182.42.272.659.272a.929.929 0 0 0 .659-1.588l-4.715-4.713a.93.93 0 1 0-1.316 1.316l4.713 4.713zM233.111 229.521a.933.933 0 0 0 1.318 0 .931.931 0 0 0 0-1.316l-4.715-4.713a.931.931 0 0 0-1.316 1.316l4.713 4.713zM228.204 234.429a.933.933 0 0 0 1.316 0 .931.931 0 0 0 0-1.316l-4.715-4.713a.93.93 0 1 0-1.316 1.316l4.715 4.713zM223.295 239.338a.933.933 0 0 0 1.316 0 .933.933 0 0 0 0-1.316l-4.715-4.714a.93.93 0 1 0-1.316 1.316l4.715 4.714zM218.387 244.247c.181.181.42.271.657.271a.929.929 0 0 0 .659-1.587l-4.715-4.713a.93.93 0 1 0-1.316 1.316l4.715 4.713zM293.614 267.758a.93.93 0 0 0-1.317 1.314l4.717 4.713a.925.925 0 0 0 1.314 0 .93.93 0 0 0 0-1.313l-4.714-4.714zM288.705 272.666a.929.929 0 0 0-1.317 0 .929.929 0 0 0 0 1.314l4.717 4.714a.927.927 0 0 0 .655.275.931.931 0 0 0 .658-1.589l-4.713-4.714zM283.797 277.575a.93.93 0 0 0-1.318 1.314l4.717 4.713a.914.914 0 0 0 .655.275.93.93 0 0 0 .659-1.589l-4.713-4.713zM278.888 282.483a.923.923 0 0 0-1.314 0 .925.925 0 0 0 0 1.314l4.714 4.714a.929.929 0 0 0 .655.275.93.93 0 0 0 .659-1.589l-4.714-4.714zM273.98 287.392a.93.93 0 0 0-1.318 1.314l4.718 4.713a.919.919 0 0 0 .655.271.929.929 0 0 0 .658-1.585l-4.713-4.713zM269.071 292.301a.922.922 0 0 0-1.313 0 .923.923 0 0 0 0 1.314l4.713 4.713a.926.926 0 0 0 1.314 0 .93.93 0 0 0 0-1.314l-4.714-4.713z"></path><path d="M273.6 256.312a3.02 3.02 0 0 0 3.016 3.016 3.02 3.02 0 0 0 3.016-3.016 3.021 3.021 0 0 0-3.016-3.016 3.02 3.02 0 0 0-3.016 3.016zM258.574 277.369c0-1.663-1.354-3.016-3.016-3.016s-3.014 1.353-3.014 3.016 1.351 3.016 3.014 3.016 3.016-1.353 3.016-3.016zM237.646 256.443a3.018 3.018 0 0 0-3.016-3.016 3.014 3.014 0 1 0 3.016 3.016zM252.674 235.386a3.02 3.02 0 0 0 3.016 3.016 3.019 3.019 0 0 0 3.014-3.016 3.02 3.02 0 0 0-3.014-3.014 3.02 3.02 0 0 0-3.016 3.014z"></path><path d="M281.36 255.19l5.421-.026a30.88 30.88 0 0 0-.676-5.664L262.5 225.896a30.823 30.823 0 0 0-5.708-.676l-.039 5.407a4.885 4.885 0 0 1 3.813 4.759 4.88 4.88 0 0 1-4.875 4.875 4.881 4.881 0 0 1-4.875-4.875 4.883 4.883 0 0 1 4.077-4.81l.038-5.348a30.985 30.985 0 0 0-5.43.667L225.896 249.5a30.849 30.849 0 0 0-.673 5.571h4.731a4.885 4.885 0 0 1 4.677-3.505 4.883 4.883 0 0 1 4.877 4.877 4.881 4.881 0 0 1-4.877 4.875 4.881 4.881 0 0 1-4.849-4.385h-4.559a30.87 30.87 0 0 0 .673 5.57l23.605 23.602a30.79 30.79 0 0 0 5.022.652l-.136-4.654a4.885 4.885 0 0 1-3.704-4.734 4.878 4.878 0 0 1 4.875-4.873 4.881 4.881 0 0 1 4.877 4.873 4.886 4.886 0 0 1-4.186 4.828l.134 4.592a30.683 30.683 0 0 0 6.115-.684l23.605-23.602c.387-1.799.61-3.636.669-5.479l-5.337.026a4.888 4.888 0 0 1-4.821 4.138 4.885 4.885 0 0 1-4.878-4.877 4.882 4.882 0 0 1 4.878-4.875 4.885 4.885 0 0 1 4.746 3.754zm-13.969-4.834a5.714 5.714 0 0 1-3.351-1.081l-3.507 3.51a5.73 5.73 0 0 1 0 6.695l3.507 3.507a5.736 5.736 0 0 1 3.351-1.077 5.75 5.75 0 0 1 5.741 5.742 5.75 5.75 0 0 1-5.741 5.745 5.75 5.75 0 0 1-5.745-5.745 5.7 5.7 0 0 1 1.08-3.347l-3.511-3.511a5.696 5.696 0 0 1-3.346 1.081 5.705 5.705 0 0 1-3.349-1.081l-3.509 3.511a5.699 5.699 0 0 1 1.081 3.347 5.75 5.75 0 0 1-5.744 5.745 5.751 5.751 0 0 1-5.745-5.745 5.751 5.751 0 0 1 5.745-5.742c1.248 0 2.404.401 3.347 1.077l3.509-3.507a5.705 5.705 0 0 1-1.079-3.348 5.7 5.7 0 0 1 1.079-3.347l-3.509-3.51a5.704 5.704 0 0 1-3.347 1.081 5.751 5.751 0 0 1-5.745-5.744 5.75 5.75 0 0 1 5.745-5.744 5.75 5.75 0 0 1 5.744 5.744 5.718 5.718 0 0 1-1.081 3.347l3.509 3.511a5.705 5.705 0 0 1 3.349-1.081c1.248 0 2.406.401 3.346 1.081l3.511-3.511a5.703 5.703 0 0 1-1.08-3.347 5.75 5.75 0 0 1 5.745-5.744 5.748 5.748 0 0 1 5.741 5.744 5.749 5.749 0 0 1-5.741 5.744z"></path><path d="M267.391 271.537a3.882 3.882 0 1 0-3.884-3.884 3.885 3.885 0 0 0 3.884 3.884zM244.348 263.773a3.886 3.886 0 0 0-3.885 3.88 3.888 3.888 0 0 0 3.885 3.884 3.887 3.887 0 0 0 3.882-3.884 3.885 3.885 0 0 0-3.882-3.88zM255.869 252.249a3.89 3.89 0 0 0-3.884 3.884 3.886 3.886 0 0 0 3.884 3.881 3.886 3.886 0 0 0 3.883-3.881 3.889 3.889 0 0 0-3.883-3.884zM244.348 240.729c-2.142 0-3.885 1.743-3.885 3.883s1.743 3.884 3.885 3.884c2.139 0 3.882-1.743 3.882-3.884s-1.742-3.883-3.882-3.883zM267.391 240.729c-2.145 0-3.884 1.743-3.884 3.883s1.739 3.884 3.884 3.884c2.141 0 3.88-1.743 3.88-3.884s-1.74-3.883-3.88-3.883z"></path></g><!----></svg>